<svg width="21" height="18" viewBox="0 0 21 18" fill="none" xmlns="http://www.w3.org/2000/svg">
<path d="M18.1156 2.34379C17.6624 1.91777 17.1244 1.57982 16.5322 1.34925C15.94 1.11868 15.3053 1 14.6643 1C14.0233 1 13.3886 1.11868 12.7964 1.34925C12.2042 1.57982 11.6662 1.91777 11.213 2.34379L10.2726 3.22752L9.33211 2.34379C8.41677 1.48366 7.17531 1.00045 5.88084 1.00045C4.58636 1.00045 3.3449 1.48366 2.42956 2.34379C1.51423 3.20392 1 4.3705 1 5.58691C1 6.80332 1.51423 7.9699 2.42956 8.83003L3.37001 9.71376L10.2726 16.2L17.1751 9.71376L18.1156 8.83003C18.5689 8.40421 18.9286 7.89862 19.1739 7.34216C19.4193 6.78569 19.5456 6.18925 19.5456 5.58691C19.5456 4.98457 19.4193 4.38813 19.1739 3.83166C18.9286 3.2752 18.5689 2.76961 18.1156 2.34379V2.34379Z" stroke="#333333" stroke-width="2" stroke-linecap="round" stroke-linejoin="round"/>
</svg>
