<svg width="23" height="24" viewBox="0 0 23 24" fill="none" xmlns="http://www.w3.org/2000/svg">
<path d="M2.875 6.85059H5.75" stroke="#333333" stroke-width="2.5" stroke-linecap="round" stroke-linejoin="round"/>
<path d="M2.875 16.6387H8.625" stroke="#333333" stroke-width="2.5" stroke-linecap="round" stroke-linejoin="round"/>
<path d="M17.25 16.6387H20.125" stroke="#333333" stroke-width="2.5" stroke-linecap="round" stroke-linejoin="round"/>
<path d="M14.375 7.34082H20.125" stroke="#333333" stroke-width="2.5" stroke-linecap="round" stroke-linejoin="round"/>
<path d="M5.75 6.85121C5.75 5.93916 5.75 5.48313 5.8959 5.1234C6.09043 4.64378 6.46356 4.26271 6.93319 4.06404C7.28542 3.91504 7.73195 3.91504 8.625 3.91504C9.51805 3.91504 9.96456 3.91504 10.3168 4.06404C10.7864 4.26271 11.1596 4.64378 11.3541 5.1234C11.5 5.48313 11.5 5.93916 11.5 6.85121C11.5 7.76326 11.5 8.21929 11.3541 8.57902C11.1596 9.05864 10.7864 9.43971 10.3168 9.63838C9.96456 9.78738 9.51805 9.78738 8.625 9.78738C7.73195 9.78738 7.28542 9.78738 6.93319 9.63838C6.46356 9.43971 6.09043 9.05864 5.8959 8.57902C5.75 8.21929 5.75 7.76326 5.75 6.85121Z" stroke="#333333" stroke-width="2.5"/>
<path d="M11.5 16.6383C11.5 15.7262 11.5 15.2703 11.6459 14.9105C11.8404 14.4309 12.2136 14.0498 12.6832 13.8511C13.0354 13.7021 13.4819 13.7021 14.375 13.7021C15.2681 13.7021 15.7146 13.7021 16.0668 13.8511C16.5364 14.0498 16.9096 14.4309 17.1041 14.9105C17.25 15.2703 17.25 15.7262 17.25 16.6383C17.25 17.5504 17.25 18.0064 17.1041 18.3662C16.9096 18.8457 16.5364 19.2268 16.0668 19.4255C15.7146 19.5745 15.2681 19.5745 14.375 19.5745C13.4819 19.5745 13.0354 19.5745 12.6832 19.4255C12.2136 19.2268 11.8404 18.8457 11.6459 18.3662C11.5 18.0064 11.5 17.5504 11.5 16.6383Z" stroke="#333333" stroke-width="2.5"/>
</svg>
