<svg width="21" height="18" viewBox="0 0 21 18" fill="none" xmlns="http://www.w3.org/2000/svg">
<path d="M18.1196 2.36663C17.6664 1.93337 17.1282 1.58967 16.5359 1.35518C15.9436 1.12069 15.3087 1 14.6675 1C14.0264 1 13.3915 1.12069 12.7992 1.35518C12.2069 1.58967 11.6687 1.93337 11.2154 2.36663L10.2748 3.26538L9.33409 2.36663C8.41854 1.49188 7.17678 1.00045 5.882 1.00045C4.58721 1.00045 3.34546 1.49188 2.4299 2.36663C1.51435 3.24138 1 4.42779 1 5.66487C1 6.90195 1.51435 8.08836 2.4299 8.96311L3.37058 9.86186L10.2748 16.4583L17.1789 9.86186L18.1196 8.96311C18.5731 8.53005 18.9328 8.01587 19.1782 7.44995C19.4237 6.88403 19.55 6.27745 19.55 5.66487C19.55 5.05229 19.4237 4.44571 19.1782 3.87979C18.9328 3.31386 18.5731 2.79969 18.1196 2.36663Z" fill="#FC2D2D" stroke="#FC2D2D" stroke-width="2" stroke-linecap="round" stroke-linejoin="round"/>
</svg>
