<svg width="15" height="27" viewBox="0 0 15 27" fill="none" xmlns="http://www.w3.org/2000/svg">
<path d="M14.5727 26.5485C14.3174 26.8097 13.9755 26.9687 13.6112 26.9958C13.247 27.0228 12.8853 26.9161 12.5942 26.6955L12.4517 26.5725L0.451711 14.847C0.193438 14.5946 0.0348615 14.2576 0.00510259 13.8977C-0.0246563 13.5378 0.0763997 13.1793 0.289712 12.888L0.409712 12.744L11.9942 0.47097C12.256 0.193319 12.6138 0.0258852 12.9947 0.00276084C13.3756 -0.0203635 13.751 0.102561 14.0445 0.346504C14.3379 0.590447 14.5274 0.937067 14.5742 1.31579C14.6211 1.69451 14.5219 2.07685 14.2967 2.38497L14.1767 2.52897L3.60321 13.7325L14.5487 24.4275C14.8099 24.6828 14.969 25.0247 14.996 25.3889C15.0231 25.7532 14.9163 26.1148 14.6957 26.406L14.5727 26.5485Z" fill="#333333"/>
</svg>
