<svg width="15" height="27" viewBox="0 0 15 27" fill="none" xmlns="http://www.w3.org/2000/svg">
<path d="M0.427286 0.45153C0.682626 0.190334 1.0245 0.0312843 1.38876 0.00421906C1.75303 -0.0228443 2.11465 0.0839367 2.40579 0.304531L2.54829 0.427532L14.5483 12.153C14.8066 12.4054 14.9651 12.7424 14.9949 13.1023C15.0247 13.4622 14.9236 13.8207 14.7103 14.112L14.5903 14.256L3.00579 26.529C2.74399 26.8067 2.38622 26.9741 2.00531 26.9972C1.6244 27.0204 1.249 26.8974 0.955545 26.6535C0.662088 26.4096 0.472636 26.0629 0.42577 25.6842C0.378904 25.3055 0.478148 24.9231 0.703289 24.615L0.823286 24.471L11.3968 13.2675L0.451284 2.57253C0.190089 2.31719 0.0310402 1.97532 0.00397491 1.61106C-0.0230894 1.24679 0.0836916 0.885166 0.304285 0.594032L0.427286 0.45153Z" fill="#333333"/>
</svg>
