<svg width="24" height="25" viewBox="0 0 24 25" fill="none" xmlns="http://www.w3.org/2000/svg">
<path d="M21.8906 21.3594L16.6406 16.1094C17.3281 15.2812 17.8281 14.375 18.1406 13.3906C18.4531 12.4219 18.5859 11.4375 18.5391 10.4375C18.4922 9.4375 18.2656 8.46875 17.8594 7.53125C17.4375 6.59375 16.8359 5.75 16.0547 5C15.2578 4.21875 14.3594 3.625 13.3594 3.21875C12.3594 2.82812 11.332 2.63281 10.2773 2.63281C9.22266 2.63281 8.19531 2.82812 7.19531 3.21875C6.17969 3.625 5.28125 4.21875 4.5 5C3.71875 5.78125 3.125 6.67969 2.71875 7.69531C2.32813 8.69531 2.13281 9.72266 2.13281 10.7773C2.13281 11.832 2.32813 12.8594 2.71875 13.8594C3.125 14.8594 3.71875 15.7578 4.5 16.5547C5.25 17.3047 6.09375 17.875 7.03125 18.2656C7.96875 18.6562 8.9375 18.8711 9.9375 18.9102C10.9375 18.9492 11.9219 18.8125 12.8906 18.5C13.875 18.1719 14.7812 17.6719 15.6094 17L20.8594 22.25L21.8906 21.3594ZM5.55469 15.6406C4.88281 14.9688 4.375 14.2188 4.03125 13.3906C3.6875 12.5625 3.51562 11.7148 3.51562 10.8477C3.51562 9.98047 3.6875 9.13281 4.03125 8.30469C4.375 7.47656 4.88281 6.72656 5.55469 6.05469C6.22656 5.38281 6.97656 4.875 7.80469 4.53125C8.63281 4.1875 9.48047 4.01562 10.3477 4.01562C11.2148 4.01562 12.0625 4.1875 12.8906 4.53125C13.7188 4.875 14.4688 5.38281 15.1406 6.05469C15.8281 6.72656 16.3359 7.47656 16.6641 8.30469C17.0078 9.13281 17.1797 9.98047 17.1797 10.8477C17.1797 11.7148 17.0078 12.5625 16.6641 13.3906C16.3359 14.2188 15.8281 14.9688 15.1406 15.6406C14.4688 16.2812 13.7109 16.7656 12.8672 17.0938C12.0234 17.4062 11.1641 17.5625 10.2891 17.5625C9.41406 17.5625 8.57031 17.4062 7.75781 17.0938C6.92969 16.7656 6.19531 16.2812 5.55469 15.6406Z" fill="#FF4E37"/>
</svg>
